<?xml version="1.0" encoding="UTF-8"?>
<svg id="Layer_1" xmlns="http://www.w3.org/2000/svg" version="1.1" viewBox="0 0 5000 4000">
  <!-- Generator: Adobe Illustrator 29.5.0, SVG Export Plug-In . SVG Version: 2.1.0 Build 137)  -->
  <defs>
    <style>
      .st0 {
        fill: #ffd939;
      }

      .st1 {
        fill: #9e6ee7;
      }

      .st2 {
        fill: #fff;
      }

      .st3 {
        fill: #1c9db3;
      }

      .st4 {
        fill: #1d1647;
      }

      .st5 {
        fill: #fca322;
      }

      .st6 {
        fill: #f27e5f;
      }

      .st7 {
        fill: #e7e0f0;
      }

      .st8 {
        fill: #c7bdd6;
      }

      .st9 {
        fill: #33cad6;
      }

      .st10 {
        fill: #ff9d76;
      }

      .st11 {
        fill: #362870;
      }

      .st12 {
        fill: #b981fd;
      }
    </style>
  </defs>
  <g>
    <path class="st1" d="M4278.62,1977.33c28.05,101.16,43.25,209.33,43.25,321.77,0,563.49-381.45,1020.28-852,1020.28s-852-456.8-852-1020.28c0-376.51,170.31-705.37,423.7-882.17-152.06-125.38-283.02-281.19-379.74-475.42C2275.79,166.32,1363.81,226.3,933.96,607.93c-119.31,105.91-235.18,260.36-323.76,448.47,43.64,17.98,82.37,49.19,109.5,92.02,69.3,109.83,36.29,255.45-73.55,324.75-54.1,34.16-116.7,43.47-174.71,30.89-46.22,280.72-25.88,596.97,104.99,922.35,9.72-7.46,20.49-12.18,32.96-12.18,35.48,0,50.61,36.46,70.4,67.69,17.67,27.86,40.26,58.69,65.94,58.69,28.43,0,48.49-36.1,70.32-65.14,22.65-30.11,46.05-61.24,79.95-61.24s55.08,31.47,75.12,61.89c18.9,28.7,34.97,68.05,62.83,68.05s57.52-38.8,78.85-68.82c20.73-29.16,35.43-61.12,65.84-61.12s50.67,31.45,69.34,61.86c17.63,28.72,34.28,55.84,59.28,55.84,4.11,0,7.44,3.96,7.44,8.84s-3.33,8.84-7.44,8.84c-32.56,0-52.26-32.08-71.3-63.11-17.23-28.08-33.51-54.6-57.31-54.6s-41.81,25.77-61.2,53.05c-22.59,31.79-45.95,64.66-81.71,64.66s-56.06-31.82-76.33-62.59c-18.66-28.34-36.28-55.11-63.4-55.11s-47.46,26.88-68.85,55.34c-23.06,30.66-46.9,62.36-81.99,62.36-33.1,0-52.82-31.12-71.91-61.23-18.41-29.04-35.8-56.48-63.85-56.48-9.82,0-18.4,3.96-26.45,10.47,68.31,165.39,165.3,333.03,296.76,499.45,755.74,957.09,2695.59,765.71,3295.4,147.42,469.37-483.69,452.02-882.05,103.51-1111.92ZM1186.07,998.7l-155.49,205.57c-1.56,2.06-4.04,3.21-6.63,3.07-2.58-.14-4.92-1.56-6.24-3.79l-120.92-203.34c-1.42-2.39-1.46-5.36-.09-7.78,1.36-2.45,3.92-3.93,6.7-3.96l276.41-2.23c2.96-.02,5.67,1.64,7,4.28,1.33,2.64,1.04,5.81-.75,8.17ZM1178.01,2923.61l-64.21-1.65,13.07,68.64c1.91,13.32-8.18,15.75-12.3,4.17l-20.82-72.54-58.97-1.15c-19.27-1.07-16.39-17.84-2.91-16.96l58.2,3.14-13.71-56.65c-5.59-15.11,18.43-22.83,21.15-5.12l15.24,62.99,64.71,3.49c11.77-.39,12.3,11.26.54,11.65ZM1360.66,1378.97c-21.32,13.45-49.61,7.05-63.06-14.27-13.45-21.32-7.05-49.61,14.27-63.06,21.32-13.45,49.61-7.05,63.06,14.27,13.45,21.32,7.05,49.61-14.27,63.06ZM1474.12,3013.02c-30.86,0-55.87-25.02-55.87-55.87s25.02-67.41,55.87-67.41,65.18,30.78,65.18,61.64-34.32,61.64-65.18,61.64ZM1610.32,585.48l-62.62-14.32-.77,69.86c-.77,13.44-11.13,13.82-12.88,1.65l-6.06-75.22-57.58-12.8c-18.68-4.86-12.54-20.73.5-17.2l56.43,14.59-2.23-58.24c-2.49-15.92,22.58-18.73,21.75-.83l2.48,64.76,62.75,16.22c11.62,1.95,9.83,13.47-1.77,11.53Z"/>
    <path class="st1" d="M562.14,1169.18c22.07,8.66,41.68,24.02,55.25,45.6,33.83,53.44,17.81,124.38-35.79,158.04-26.97,17-58.18,21.41-86.95,14.87-7.52,31.87-14.22,64.23-19.93,97.08-.98,4.78-1.78,9.56-2.53,14.41.75-4.85,1.55-9.63,2.53-14.41,57.69,12.75,119.31,7.03,164.75-21.57,91.52-57.69,133.03-214.43,75.34-305.96-23.86-37.92-66.03-65.87-113.43-81.72,2.94-6.37,5.88-12.75,8.83-19.12-2.94,6.37-5.89,12.75-8.83,19.12-13.89,30.4-26.97,61.62-39.23,93.65Z"/>
    <path class="st1" d="M578.32,1368.08c44.62-28.11,64.88-104.44,36.77-149.06-11.93-18.8-33.01-32.52-56.71-40.21h0c-24.03,63.58-44.79,130.1-61.46,199.39,28.43,6.7,59,4.09,81.39-10.13Z"/>
    <path class="st1" d="M1313.7,1303.65c-17.77,11.21-23.77,40.62-12.56,58.38,11.21,17.77,37.69,21.7,55.46,10.49,17.77-11.21,26.21-36.82,15-54.59-11.21-17.77-40.12-25.5-57.89-14.29Z"/>
    <polygon class="st1" points="1025.16 1185.68 1171.41 992.17 908.46 997.93 1025.16 1185.68"/>
    <circle class="st12" cx="910.91" cy="1715.99" r="130.76" transform="translate(-946.59 1146.71) rotate(-45)"/>
    <path class="st12" d="M1178.64,2431.91c-23.5,0-41.81,25.77-61.2,53.05-22.59,31.79-45.95,64.66-81.71,64.66s-56.06-31.82-76.33-62.59c-18.66-28.34-36.28-55.11-63.4-55.11s-47.46,26.88-68.85,55.34c-23.06,30.66-46.9,62.36-81.99,62.36-33.1,0-52.82-31.12-71.91-61.23-18.41-29.04-35.8-56.48-63.85-56.48-23.68,0-40.16,22.95-59.24,49.53-22.93,31.95-48.92,68.17-93.79,68.17-4.11,0-7.44-3.96-7.44-8.84s3.33-8.84,7.44-8.84c38,0,60.61-31.5,82.47-61.96,19.67-27.4,40.01-55.74,70.56-55.74,35.48,0,50.61,36.46,70.4,67.69,17.67,27.86,40.26,58.69,65.94,58.69,28.43,0,48.49-36.1,70.32-65.14,22.65-30.11,46.05-61.24,79.95-61.24s55.08,31.47,75.12,61.89c18.9,28.7,34.97,68.05,62.83,68.05s57.52-38.8,78.85-68.82c20.73-29.16,35.43-61.12,65.84-61.12,3.02,0,5.93.3,8.74.85,3.26-21.5,4.95-43.52,4.95-65.93,0-241.03-195.39-436.42-436.42-436.42s-436.42,195.39-436.42,436.42,195.39,436.42,436.42,436.42c212.54,0,389.59-151.93,428.47-353.12-1.87-.35-3.78-.55-5.75-.55Z"/>
  </g>
  <g>
    <path class="st12" d="M3498.64,254.25c-20.1,108.52-83.52,208.55-184.04,271.96-191.06,120.62-444.56,63.25-565.17-127.81-29.09-46.25-47.88-96.27-56.88-147.09-723.87,177.82-1260.76,831.08-1260.76,1609.87,0,915.58,742.18,1657.92,1657.76,1657.92s1657.92-742.34,1657.92-1657.92c0-774.37-531.01-1424.69-1248.83-1606.92ZM3437.68,714.27c-15.49-26.7-6.41-60.91,20.29-76.4,26.7-15.49,70.89-12.2,86.38,14.5,15.49,26.7,6.09,71.86-20.61,87.35-26.7,15.49-70.57,1.25-86.07-25.45ZM3680.49,2705.66l-88.37,91.89c-.95.98-2.37,1.34-3.67.93s-2.25-1.53-2.46-2.88l-17.68-117.56c-.18-1.18.24-2.37,1.12-3.18.88-.81,2.1-1.12,3.26-.84l106.06,25.67c1.25.3,2.24,1.25,2.6,2.48.37,1.24.03,2.56-.86,3.49ZM3775.88,1336.64l-155.49,205.57c-1.56,2.06-4.04,3.21-6.63,3.07-2.58-.14-4.92-1.56-6.24-3.79l-120.92-203.34c-1.42-2.39-1.46-5.36-.09-7.78,1.36-2.45,3.92-3.93,6.7-3.96l276.41-2.22c2.96-.02,5.67,1.64,7,4.28,1.33,2.64,1.04,5.81-.75,8.17ZM4032.06,2990.86l-134.1,177.29c-1.35,1.78-3.49,2.77-5.71,2.65-2.23-.12-4.25-1.35-5.39-3.26l-104.29-175.37c-1.23-2.06-1.26-4.62-.08-6.71,1.18-2.12,3.38-3.39,5.78-3.41l238.39-1.92c2.55-.02,4.89,1.41,6.04,3.69,1.15,2.28.9,5.01-.64,7.05ZM3829.42,2552.68c17.36-39.03,63.23-56.66,102.26-39.3s56.66,63.23,39.3,102.26c-17.36,39.03-63.23,56.66-102.26,39.3s-56.66-63.23-39.3-102.26ZM4093.91,802.8c-14.16,20.66-28.81,42.03-51.22,42.03s-35.14-20.69-47.85-40.69c-11.7-18.42-22.74-35.82-39.74-35.82s-29.75,17.47-43.16,35.97c-14.46,19.93-29.4,40.54-51.4,40.54-20.75,0-33.11-20.23-45.08-39.8-11.54-18.88-22.44-36.71-40.03-36.71-14.85,0-25.18,14.92-37.14,32.2-14.37,20.77-30.67,44.31-58.79,44.31-2.58,0-4.66-2.57-4.66-5.75s2.09-5.75,4.66-5.75c23.82,0,42.16-16.66,55.86-36.46,12.33-17.81,20.92-40.05,40.07-40.05,22.24,0,35.07,20.99,47.48,41.29,11.08,18.11,21.89,41.63,37.98,41.63,17.82,0,30.4-24.23,44.08-43.11,14.2-19.57,28.87-39.81,50.12-39.81s34.53,20.45,47.09,40.23c11.85,18.66,22.68,43.2,40.15,43.2s31.07-25.35,44.45-44.87c12.99-18.96,26.43-38.56,45.49-38.56s31.77,20.44,43.47,40.21c11.05,18.67,21.49,36.3,37.16,36.3,2.58,0,4.66,2.57,4.66,5.75s-2.09,5.75-4.66,5.75c-20.41,0-32.76-20.85-44.69-41.02-10.8-18.25-21-35.49-35.93-35.49s-26.21,16.75-38.36,34.48ZM4207.85,1477.8c-52.22-23.23-75.8-84.6-52.58-136.82s84.6-75.8,136.82-52.58c52.22,23.23,75.8,84.6,52.58,136.82s-84.6,75.8-136.82,52.58ZM4420.74,1800.72l-44.41,3.55-9.35,43.56c-.87,4.04-4.84,6.61-8.88,5.74-4.04-.87-6.61-4.84-5.74-8.88l8.41-39.17-39.94,3.19c-4.12.33-7.73-2.74-8.05-6.86-.33-4.12,2.74-7.72,6.86-8.05l44.41-3.55,9.35-43.56c.87-4.04,4.84-6.61,8.88-5.74,1.63.35,3.03,1.21,4.05,2.38,1.5,1.72,2.21,4.1,1.69,6.5l-8.41,39.17,39.94-3.19c2.45-.2,4.72.81,6.23,2.53,1.02,1.17,1.69,2.66,1.83,4.33.33,4.12-2.74,7.72-6.86,8.05Z"/>
    <polygon class="st12" points="3888.14 3157.33 4013.16 2993.63 3789.19 2990.86 3888.14 3157.33"/>
    <polygon class="st12" points="3591.99 2787.35 3676.36 2702.11 3574.25 2676.98 3591.99 2787.35"/>
    <path class="st12" d="M3928.89,2519.39c-32.52-14.47-80.53,1.88-95,34.4-14.47,32.52,4.77,79.6,37.29,94.07,32.52,14.47,73.53-4.93,88-37.45,14.47-32.52,2.23-76.55-30.29-91.01Z"/>
    <path class="st12" d="M4288.36,1296.44c-43.51-19.35-107.74,2.51-127.1,46.02s6.38,106.5,49.9,125.85c43.51,19.35,98.38-6.6,117.73-50.11s2.98-102.41-40.53-121.77Z"/>
    <polygon class="st12" points="3614.97 1523.63 3761.23 1330.12 3498.28 1335.87 3614.97 1523.63"/>
    <path class="st12" d="M3302.84,508.89c84.17-53.12,144.15-154.45,167.03-261.5h0c-54.75-13.07-110.65-23.21-167.36-30.4-20.92,35.14-50.18,65.87-87.11,89.07-125.68,79.27-292.39,41.51-371.66-84.17,0-.16-.16-.16-.16-.33-41.03,6.05-81.72,13.73-121.76,22.88,5.23,52.3,20.43,101.99,46.91,143.83,100.51,159.19,374.93,220.97,534.12,120.62Z"/>
    <path class="st12" d="M2707.12,247.75c4.88-1.14,9.78-2.25,14.69-3.31-4.9,1.06-9.81,2.17-14.69,3.31Z"/>
    <path class="st12" d="M3207.71,294.62c29.91-18.96,55.24-47.07,74.53-80.09-63.25-7.36-127.48-11.11-192.69-11.11-78.12,0-155.1,5.39-230.28,16.02,67.98,101.66,245.16,140.23,348.45,75.18Z"/>
    <circle class="st1" cx="3726.63" cy="2223.62" r="57.03" transform="translate(934.78 5545.95) rotate(-80.78)"/>
    <circle class="st1" cx="4604.76" cy="2030.68" r="48.95"/>
    <g>
      <path class="st1" d="M4458.62,1204.87c-37.35-55.86-112.91-70.86-168.77-33.51-37.41,25.02-56.49,67.17-53.79,109.07,18.45-2.53,37.8-.14,56.03,7.97,42.07,18.71,65.55,62.18,60.94,105.68,24.72.93,49.95-5.65,72.08-20.45,55.86-37.35,70.86-112.91,33.51-168.77Z"/>
      <path class="st1" d="M4288.36,1296.44c-15.44-6.87-33.49-8.54-51.22-5.9,2.57,17.22,8.88,34.16,19.21,49.59,19.14,28.63,48.32,46.52,79.74,52.14,5-38.42-12.44-80.13-47.73-95.83Z"/>
    </g>
    <g>
      <path class="st1" d="M3928.89,2519.39c-12.48-5.55-27.24-6.55-41.51-3.86-.3,3.83-.47,7.64-.47,11.42,0,44.1,21.12,83.27,53.78,107.95,7.82-6.72,14.28-15.05,18.48-24.5,14.47-32.52,2.23-76.55-30.29-91.01Z"/>
      <path class="st1" d="M4022.15,2363.81c-68.34,0-124.83,74.06-133.94,143.87,14.27-2.26,29.32-.59,43.47,5.71,39.03,17.36,56.66,63.23,39.3,102.26-4.67,10.51-11.43,19.45-19.54,26.59,20.58,12.65,44.79,19.95,70.71,19.95,74.69,0,157.75-74.5,157.75-149.19s-83.07-149.19-157.75-149.19Z"/>
    </g>
  </g>
  <g>
    <path class="st11" d="M1676.12,2228.8c13.65-64.75-30.49-131.09-73.17-195.24-49.57-74.5-100.83-151.53-64.95-229.35,37.58-81.48,235.64-251.79,280.61-281.05,143.06-93.07-41.87-360.86,43.86-493.92,84.56-131.23,299.84-196.27,515.2-49.99-6.34-22.39-25.05-103.46,13.29-171.57,23.41-41.57,63.7-70.19,119.78-85.05,81.26-21.54,159.24-5.98,225.5,45,57.88,44.53,102.78,114.22,129.06,195.4,42.27,130.54,92.46,120.77,190.59,130.54,63.89,6.36,124.25,5.99,194.67,41.59,143.23,72.4,178.87,194.54,100.35,343.94-55.06,104.77-104.2,207.31-100.71,309.88,2.99,87.74,36.2,164.28,120.67,245.9,77.36,58.29,153.6,119.82,150.24,189.01-8.75,180.38-291.24,263.94-143.6,476.67,150.39,216.69-196.84,360.45-888.71,365.47-530.96,3.85-856.63-211.83-868.4-220.31-70.04-50.43-138.03-112.18-150.51-184.78-12.81-74.47,25.81-121.65,74.7-181.39,47.21-57.69,105.97-129.48,131.54-250.76ZM2511.48,785.95c147.12-30.62,293.31,41.88,317.84,233.5,24.53,191.62,259.2,79.11,394.64,188.95,135.43,109.84,109.19,237.08-30.99,486.73-72.13,128.45,19.16,216.95,123.6,297.17-12.15-15.27-22.9-30.6-32.32-46.05-30.88-50.7-46.8-101.97-48.67-156.74-3.6-105.91,46.33-210.25,102.28-316.72,75.4-143.48,42.84-255.92-94.16-325.17-67.78-34.26-131.71-39.15-188.1-43.45-46.53-3.55-97.32-4.94-131.22-24.64-31.83-18.5-55.37-55.42-73.1-112.39-45.81-147.23-167.7-275.74-336.74-230.93-52.02,13.79-89.26,40.05-110.69,78.06-25.85,45.85-29.32,101.6-23.9,135.35,2.81-51.66,28.87-142.3,131.51-163.66ZM1484.32,2658.57c14.14,110.95,159.51,187.72,166.38,193.36-73.5-102.57-136.42-237.2-18.9-362.49,180.77-192.73,95.82-389.78,10.7-526.98-60.27-97.15-55.05-193.71,14.27-287.27-41.62,36.6-80.96,81.69-105.39,134.67-32.69,70.88,14.24,141.4,63.91,216.06,44.25,66.5,90,135.27,75.18,205.6-26.26,124.58-86.22,197.84-134.4,256.71-46.65,57-83.49,102.01-71.74,170.34Z"/>
    <path class="st4" d="M2191.32,1704.83s72.81,108.93,59.69,175.84c-16.48,84.04-87.85,160.53-87.85,160.53h667.75s-91.49-78.26-103.65-159.21c-10.5-69.91,50.55-177.15,50.55-177.15h-586.49Z"/>
    <path class="st3" d="M2997.24,3401.69c0,163.39-216.4,255.95-503.67,255.95s-536.61-92.56-536.61-255.95,232.87-295.85,520.14-295.85,520.14,132.46,520.14,295.85Z"/>
    <path class="st10" d="M2914.25,2559.15c22.48,37.76,147.1,268.79,191.31,383.67l183.75,35.57c7.21,1.4,13.82-4.48,12.81-11.69-38.56-276.03-253.31-770.67-299.19-832.89-38.52-52.24-268.73-118.28-333.59-133.55-12.53-2.95-33.74-11.91-42.27-21.19-63.79-69.43-38.11-242.93-38.11-242.93l-222.62,1.36s23.53,147.51-32.56,226.68c-12.27,17.32-41.88,25.3-62.41,32.46-74.62,26.03-253.7,58.49-311.52,127.74-34.99,41.9-285.19,790.61-252.72,864.02l202.57-65.06c49.77-127.56,148.38-322.71,164.75-380.81,19.92,25.64,80.52,232.44,74.46,336.31-18.71,320.55-96.88,402.33-96.88,402.33,0,0,144.05,74.23,444.46,73.83,346.81-.46,441.19-26.36,441.19-26.36,0,0-87.71-122.08-93.56-438.49-2.09-113.3,65.23-293.65,70.11-331Z"/>
    <path class="st0" d="M3002.19,2117.63c-79.54-78.6-344.76-121.64-350.7-123.44,0,0-9.95,130.91-181.58,131.19-137.43.23-172.79-137.39-172.79-137.39,0,0-264.11,36.9-346.99,136.38-99.63,119.59-197.09,450.2-194.97,462.28,2.12,12.08,66.9,51.78,143.43,72.35,76.54,20.58,138.46,27.19,145.9,23.08,2.48-1.37,23.32-41.16,40.49-78.32,34.19,44.62,65.6,257.48,63.96,285.69-18.76,321.47-103.27,377.46-103.27,377.46,0,0,145.62,97.61,446.91,97.21,347.81-.46,445.14-35.49,445.14-35.49,0,0-95.67-107.8-101.53-425.11-.7-38.08,43.05-228.39,67.77-303.23,17.29,36.03,30.52,77.16,32.97,78.52,7.44,4.11,59.53,7.2,136.07-13.37,76.54-20.58,161.79-76.14,163.92-88.22,2.13-12.08-125.38-351.54-234.71-459.59Z"/>
    <path class="st5" d="M2905.14,2609.55c16.51,31.82,29,68.6,31.48,69.97,3.86,2.13,25.36,5.33,73.06-1.13,0,0-71.55-118.39-120.47-231.51-4.68-10.82-12.31-9.6-11.76,2.11,13.05,275.36-226.13,253.9-227.04,265.5-1.06,13.62,123.58,27,171.71-3.94.18-.12.41-.14.62-.21,18.09-6.17,8.49,126.33,5.57,212.95-6.64,196.7-129.34,393.47-339.83,386.01-228.18-8.09-305.54-262.36-315.15-409.89-4.16-63.92-7.4-194.44-7.4-194.44h0c73.88,36.52,175,16.72,174.47,6.56-.75-14.31-203.23-6.23-226.73-259.75-1.32-14.25-8.4-13.6-13,0-45.95,135.82-109.25,227.13-109.25,227.13,27.66,4.76,49.21,5.31,53.06,3.17,2.48-1.37,23.25-41.1,40.42-78.25,2.01,7.83.58-.71,2.01,7.83,68.4,410.46-92.41,678.99-92.41,678.99,0,0,200.24,91.49,501.52,91.09,347.81-.46,484.58-57.85,484.58-57.85,0,0-149.22-277.6-75.47-714.34Z"/>
    <path class="st6" d="M2592.2,1903.18c-12.33-70.44-3.46-109.47-3.46-109.47l-217.63,1.36s4.25,39.88-9.35,103.69c88.19,74.22,141.49,76.51,230.45,4.42Z"/>
    <path class="st6" d="M2015.88,2682.25l-24.45-3.34c-66.76,145.52-183.31,220.7-183.31,220.7,0,0,96.41-34.77,117.98-16.62,22.16-55.81,69.29-137.52,89.78-200.74Z"/>
    <path class="st6" d="M2980.43,2681.47l29.24-3.08c92.95,178.69,173.93,216.66,173.93,216.66,0,0-56.14-23.37-102.93-11.13,0,0-65.8-134.11-100.24-202.45Z"/>
    <path class="st10" d="M1711.95,2995.14c-7.6-9.08-6.83-21.78,2.09-29.59,38.86-34.02,212.06-82.56,212.06-82.56,124.83,32.45,356.56,183.88,483.87,232.3,17.77,6.76,38.79,16.25,50.07,29.74,19.09,22.84,35.1,52.91,3.07,58.35-50.76,8.63-464.12-62.13-538.25-78.67-87.93-19.62-187.61-99.35-212.92-129.57Z"/>
    <path class="st6" d="M2085.05,3126.54c-161.73-22.49-241.56-52.21-380.8-158.09,0,0,0,19.16,5.51,25.93,24.87,30.56,126.64,110.65,214.57,130.27,74.12,16.54,487.49,87.3,538.25,78.67,10.27-1.75,16.23-6.18,19.01-12.11-110.28-2.93-244.99-43.6-396.55-64.67Z"/>
    <path class="st10" d="M3301.94,2965.38l-218.29-82.63c-134,52.27-368.11,158.41-480.55,217.5-16.77,8.81-45.65,25.51-56.91,39.02-19.05,22.87-28.47,54.25,3.57,59.64,50.77,8.55,464.01-62.92,538.1-79.59,87.9-19.77,216.77-123,214.07-153.94Z"/>
    <path class="st6" d="M2927.68,3121.43c161.69-22.76,233.11-63.94,372.16-170.06,2.76,8.55,4.13,31.36-.18,36.53-25.25,30.27-123.37,111.6-211.26,131.37-74.09,16.66-487.33,88.13-538.1,79.59-10.27-1.73-16.24-6.15-19.04-12.08,110.27-3.12,244.91-44.02,396.43-65.35Z"/>
    <path class="st10" d="M2668.33,3155.29c-12.14-36.57-51.82-54.31-84.98-37.9-16.39,8.11-33.2,18.44-42.92,30.11-23.54,28.25-40.22,119.28-26.65,198.53,13.57,79.24,107.5,14.81,147.55-77.93,19.21-44.47,16.76-83.43,7.01-112.8Z"/>
    <path class="st6" d="M2650.97,3234.43c14.59-33.79,16.65-64.37,12.53-90.01,1.85,3.42,3.5,7.02,4.79,10.88,9.75,29.37,12.2,68.33-7.01,112.8-40.05,92.74-133.98,157.17-147.55,77.93-.58-3.39-1.03-6.81-1.5-10.24,27.78,38.93,103.78-20.41,138.74-101.36Z"/>
    <path class="st10" d="M2341.61,3164.53c12.07-36.59,51.72-54.4,84.91-38.05,16.41,8.08,37.3,23.55,37.3,23.55,23.6,28.21,52.88,127.03,32.7,204.96-15.26,58.9-107.47,14.99-147.69-77.68-19.29-44.44-16.91-83.4-7.21-112.79Z"/>
    <path class="st6" d="M2359.07,3243.63c-14.65-33.77-16.77-64.34-12.7-89.99-1.85,3.42-3.49,7.03-4.77,10.88-9.7,29.39-12.07,68.35,7.21,112.79,40.22,92.67,129.21,136.58,147.69,77.68,1.03-3.29,1.02-6.82,1.48-10.24-27.71,38.98-103.82-20.23-138.93-101.13Z"/>
    <g>
      <path class="st7" d="M2995.31,3351.77h-979.17c-13.3,0-25.57-9.93-27.28-22.14l-98.32-700.96c-2.44-17.42,8.66-31.78,24.7-31.78h1180.96c16.04,0,27.14,14.36,24.7,31.78l-98.32,700.96c-1.71,12.21-13.98,22.14-27.28,22.14Z"/>
      <path class="st8" d="M3005.37,3387.02h-999.29c-7,0-12.73-5.61-12.73-12.46v-10.32c0-6.85,5.73-12.46,12.73-12.46h999.29c7,0,12.73,5.61,12.73,12.46v10.32c0,6.85-5.73,12.46-12.73,12.46Z"/>
      <path class="st8" d="M3060.61,2620.98s-128.99,533.9-651.82,589.25c-144.95,15.35-283.34-20.27-396.9-90.24-6.15-3.79-14.03,1.22-13.04,8.27l25.06,178.7c1.6,11.43,13.09,20.73,25.54,20.73h916.69c12.45,0,23.94-9.3,25.54-20.73l92.04-656.23c2.29-16.31-8.11-29.76-23.12-29.76Z"/>
      <ellipse class="st8" cx="2505.73" cy="2997.2" rx="113.71" ry="54.94"/>
      <path class="st2" d="M1972.22,2643.17l721.05-46.28h-778.16c-16.04,0-27.14,14.36-24.7,31.78l79.24,564.98-25.46-519.77c-.78-16,11.68-29.67,28.02-30.72Z"/>
    </g>
    <g>
      <path class="st10" d="M1500.6,3272.71s36.06-148.13,322.49-94.87c286.43,53.26,607.58,287.12,825.88,383.33,238.15,104.96,280.42,107.95,280.42,107.95,0,0,84.84-20.29,190.64-50.43,170.58-48.59,208.97,11.19,211.7,38.3,3.87,38.34-8.55,78.83-132.9,110.13-168.52,42.4-296.96,21.34-296.96,21.34-60.97-10.32-928.72-77.91-1077.76-129.56-184-63.76-396.25-208.12-323.5-386.19Z"/>
      <g>
        <path class="st8" d="M2893.23,3672.33s246.98-109.98,325.93-111.63c69.35-1.45,152.11,62.17,145.46,118.71-6.65,56.54-76.74,119.03-198.96,123.75-102.95,3.98-301.49-11.26-301.49-11.26,0,0,45.82-42.6,29.06-119.57Z"/>
        <path class="st7" d="M2864.17,3791.9s45.82-42.6,29.06-119.57c0,0,202.95-91.13,299.7-109.25,64.77,8.45,133.32,65.86,127.25,117.52-6.28,53.39-69.2,112.03-179.12,122.37-106.95,1.21-276.89-11.07-276.89-11.07Z"/>
        <path class="st8" d="M2896.52,3694.78s164.11-54.76,230.76-59.54c66.65-4.78,94.94,28.44,95.96,51.94s-37.25,63.77-89.81,67.94c-52.56,4.17-240.46-17.11-240.46-17.11,0,0,4.55-21.05,3.55-43.23Z"/>
        <path class="st2" d="M3129.6,3618.27s3.83,10.08,7.64,24.26c1.94,7.09,3.7,15.29,5.08,23.96,1.29,8.68,2.18,17.88,2.02,27.08.32,9.23-.91,18.39-1.8,27.19-1.61,8.67-2.91,17.02-4.78,24.22-1.36,7.36-3.4,13.34-4.34,17.84-1.02,4.47-1.46,7.2-1.46,7.2,0,0,2.04-1.69,5.36-4.96,3.19-3.34,8.26-7.97,12.32-14.88,4.77-6.55,8.78-15.15,12.24-24.81,3.1-9.8,4.89-20.76,5.02-31.86-.32-11.07-1.83-22.15-5.36-31.88-3.3-9.76-7.82-18.27-12.71-24.77-9.42-13.32-19.24-18.6-19.24-18.6Z"/>
        <path class="st2" d="M3050.98,3621.68s3.83,10.08,7.64,24.26c1.94,7.09,3.7,15.29,5.08,23.96,1.29,8.68,2.18,17.88,2.02,27.08.32,9.23-.91,18.39-1.8,27.19-1.61,8.67-2.91,17.02-4.78,24.22-1.36,7.36-3.4,13.34-4.34,17.84-1.02,4.47-1.46,7.2-1.46,7.2,0,0,2.04-1.69,5.36-4.96,3.19-3.34,8.26-7.97,12.32-14.88,4.77-6.55,8.78-15.15,12.24-24.81,3.1-9.8,4.89-20.76,5.02-31.86-.32-11.07-1.83-22.15-5.36-31.88-3.3-9.76-7.82-18.27-12.71-24.77-9.42-13.32-19.24-18.6-19.24-18.6Z"/>
        <path class="st2" d="M2977.89,3640.09s3.83,8.31,7.24,20.6c1.84,6.09,3.52,13.17,4.81,20.71,1.24,7.55,2.04,15.59,1.93,23.63.26,8.06-.84,16.06-1.73,23.71-1.5,7.54-2.77,14.75-4.54,20.92-1.37,6.29-3.03,11.53-4.16,15.24-1.07,3.75-1.51,6.07-1.51,6.07,0,0,1.7-1.5,4.37-4.42,2.43-3.05,6.9-6.98,10.21-12.98,3.95-5.68,7.26-13.09,10.14-21.36,2.55-8.39,4.07-17.75,4.15-27.22-.07-19.02-6.82-37.35-14.97-48.54-8-11.43-15.94-16.36-15.94-16.36Z"/>
      </g>
      <path class="st9" d="M1494.2,3266.69s52.59-153,338.72-98.11c286.13,54.9,1085.61,494.48,1086.91,498.77,11.55,38.18,4.15,100.49-10.65,128.9-1.45,2.78-957.06-74.51-1093.25-122.57-183.64-64.81-395.46-229.34-321.74-407Z"/>
      <path class="st3" d="M2752.1,3589.44s41.33,48.36.2,99.99c-24.04,30.17-63.85,52.37-187.58,47.09-288.26-12.3-541.04-31.35-739.76-97.31-132.62-44.02-300.34-167.69-345.23-284.88,10.8,142.29,183.26,265.44,336.2,319.42,136.19,48.06,1098.25,127.47,1099.8,124.76,23.83-41.63,24.62-111.49,13.19-131.45-2.23-3.89-145.76-66.45-176.82-77.62Z"/>
    </g>
    <g>
      <path class="st10" d="M3418.51,3288.35s-33.75-150.08-317.95-97.88c-284.2,52.2-605.12,286.9-822.44,382.96-237.08,104.79-272.5,111.23-272.5,111.23,0,0-66.95-15.25-187.34-56.22-85.31-29.03-160.36,3.74-179.13,23.89-26.39,28.34,19.19,114.14,110.66,141.77,146.03,44.12,247.78,22.88,247.78,22.88,60.48-10.08,947.5-88.45,1095.68-139.83,182.95-63.42,394.91-208.22,325.24-388.81Z"/>
      <g>
        <path class="st8" d="M2053.43,3694.43s-251.29-108.44-331.22-109.19c-70.22-.66-153.24,64.71-145.85,121.86,7.39,57.15,79.07,119.59,202.84,122.94,104.26,2.82,305.04-14.93,305.04-14.93,0,0-46.88-42.59-30.81-120.69Z"/>
        <path class="st7" d="M2084.25,3815.12s-46.88-42.59-30.81-120.69c0,0-206.5-89.87-304.65-107.08-65.47,9.31-134.18,68.23-127.43,120.45,6.98,53.97,71.36,112.59,182.74,121.78,108.27-.03,280.15-14.45,280.15-14.45Z"/>
        <path class="st8" d="M2050.37,3717.19s-166.76-53.51-234.28-57.57c-67.53-4.06-95.77,29.9-96.52,53.7-.76,23.8,38.45,64.12,91.7,67.72,53.25,3.6,243.2-20.13,243.2-20.13,0,0-4.85-21.25-4.1-43.72Z"/>
        <path class="st2" d="M1813.53,3642.47s-3.76,10.25-7.45,24.64c-1.88,7.2-3.57,15.52-4.86,24.31-1.2,8.81-2,18.12-1.73,27.44-.22,9.35,1.14,18.6,2.14,27.5,1.74,8.76,3.15,17.2,5.12,24.46,1.46,7.43,3.6,13.46,4.6,18.01,1.08,4.51,1.57,7.27,1.57,7.27,0,0-2.08-1.69-5.48-4.96-3.27-3.34-8.45-7.97-12.65-14.91-4.91-6.57-9.06-15.24-12.68-24.97-3.26-9.88-5.2-20.96-5.46-32.19.2-11.21,1.6-22.44,5.05-32.33,3.23-9.91,7.7-18.58,12.57-25.22,9.38-13.6,19.26-19.05,19.26-19.05Z"/>
        <path class="st2" d="M1893.15,3645.01s-3.76,10.25-7.45,24.64c-1.88,7.2-3.57,15.52-4.86,24.31-1.2,8.81-2,18.12-1.73,27.44-.22,9.35,1.14,18.6,2.14,27.5,1.74,8.76,3.15,17.2,5.12,24.46,1.46,7.43,3.6,13.46,4.6,18.01,1.08,4.51,1.57,7.27,1.57,7.27,0,0-2.08-1.69-5.48-4.96-3.27-3.34-8.45-7.97-12.65-14.91-4.91-6.57-9.06-15.24-12.68-24.97-3.26-9.88-5.2-20.96-5.46-32.19.2-11.21,1.6-22.44,5.05-32.33,3.23-9.91,7.7-18.58,12.57-25.22,9.38-13.6,19.26-19.05,19.26-19.05Z"/>
        <path class="st2" d="M1967.36,3662.79s-3.78,8.46-7.09,20.94c-1.79,6.19-3.41,13.38-4.63,21.02-1.16,7.66-1.88,15.8-1.68,23.94-.17,8.16,1.04,16.25,2.03,23.98,1.61,7.61,2.98,14.9,4.84,21.12,1.46,6.36,3.2,11.63,4.39,15.38,1.13,3.79,1.6,6.13,1.6,6.13,0,0-1.74-1.5-4.47-4.42-2.49-3.06-7.07-6.98-10.49-13.02-4.07-5.71-7.5-13.17-10.51-21.51-2.68-8.47-4.32-17.92-4.52-27.5-.16-19.26,6.46-37.89,14.58-49.3,7.96-11.66,15.95-16.75,15.95-16.75Z"/>
      </g>
      <path class="st9" d="M3424.93,3282.29s-50.06-155.11-333.98-101.25c-283.92,53.86-603.58,290.42-820.39,387.74-123.24,55.32-216.15,86.18-258.31,100.13-4.18,1.38-5.96,6.52-3.61,10.35,12.1,19.7,18.8,30.35,23.6,63.39,3.13,21.56,1.12,50.06-12.19,69.3-1.8,2.6.25,6.17,3.3,5.82,173.39-19.61,942.39-77.79,1077.81-125.62,182.61-64.49,394.41-229.7,323.76-409.87Z"/>
      <path class="st3" d="M2362.35,3523.23s-254,117.97-251.7,173c1.94,46.44,49.48,68.99,172.01,64.38,285.47-10.75,720.17-85.89,806.52-116.38,131.03-46.27,302.96-154.88,348.92-273.18-12.55,143.89-184.85,267.47-336.94,321.18-135.42,47.82-1080.85,130.85-1081.36,127.73-4.43-27.25-15.8-119.59-13.72-148.16.33-4.49,356.26-148.57,356.26-148.57Z"/>
    </g>
    <path class="st10" d="M2788.14,1541.3c-5.47.52-10.52,1.79-15.19,3.69-3.15-198.28-131.54-357.79-289.49-357.79s-286.93,160.26-289.5,359.17c-5.58-2.7-11.73-4.44-18.53-5.07-32.57-3.02-49.19,25.13-45.22,71.81,5.15,60.48,57.22,114,78.46,112.47,11.56-.83,16.11-8.84,16.11-8.84,46.97,129.96,197.99,217.37,256.77,217.37,70.08,0,209.92-87.41,259.64-215.04,0,0,6.05,11.14,17.6,7.04,19.89-7.06,68.95-52.62,74.1-113.1,3.97-46.68-12.48-74.79-44.76-71.71Z"/>
    <path class="st11" d="M2487.89,1191.67s101.05,20.6,78.87,86c-22.19,65.41-41.5,130.03,26.63,185.24,68.13,55.21,178.12,31.93,172.85,116.97-2.38,38.45,4.63,45.58,24.5-4.42,20.41-51.37,4.94-432.13-302.84-383.79Z"/>
    <path class="st11" d="M2482.04,1158.79c14.59,2.66,15.2,19.99,6.91,31.42-18.27,25.2-42.3,40.09-106.95,56.92-129.89,33.81-68.46,109.3-89.45,177.21-16.42,53.11-46.64,83.5-54.8,105.93-10.83,29.79-13.64,65.78-14.06,83.28-.13,5.31-4.61,6.07-7.26,1.36-13.45-23.92-38.16-78.27-43.25-137.56-13.15-153.35,103.52-355.94,308.86-318.56Z"/>
    <path class="st4" d="M2487.89,1191.67s11.21-68.55,96.41-44.62c100.85,28.33,56.43,158.85,12.24,209.93-44.2,51.08-3.15,105.93-3.15,105.93,0,0-67.06-44.34-42.97-129.55,24.09-85.21,31.25-116.04-62.52-141.69Z"/>
    <path class="st4" d="M2228.96,1477.02c49.74-70.26,16.79-78.07,19.21-156.49,1.63-52.9,114.32-67.5,114.32-67.5-101.48,47.86-50.99,111.9-70.01,172.13-17.92,56.74-46.64,83.5-54.8,105.93-10.83,29.79-13.34,58.96-13.76,76.46,0,0-17.16-99.16,5.05-130.54Z"/>
  </g>
</svg>