<?xml version="1.0" encoding="utf-8"?>
<!-- Generator: Adobe Illustrator 27.5.0, SVG Export Plug-In . SVG Version: 6.00 Build 0)  -->
<svg version="1.1" id="Layer_1" xmlns="http://www.w3.org/2000/svg" xmlns:xlink="http://www.w3.org/1999/xlink" x="0px" y="0px"
	 viewBox="0 0 5000 4000" style="enable-background:new 0 0 5000 4000;" xml:space="preserve">
<rect style="fill:#FFFFFF;" width="5000" height="4000"/>
<g>
	<g>
		<path style="fill:#9E6EE7;" d="M4175.104,3089.248c-599.813,618.287-2539.661,809.673-3295.403-147.422
			C485.159,2442.359,400.99,1931.942,471.432,1504.061c0.982-6.538,1.963-12.912,3.272-19.286
			c5.714-32.851,12.418-65.213,19.935-97.082c0.654-3.105,1.468-6.374,2.29-9.48c16.671-69.298,37.428-135.817,61.457-199.395
			c1.301-3.269,2.45-6.375,3.751-9.642c12.258-32.034,25.338-63.252,39.232-93.651c2.937-6.374,5.882-12.748,8.826-19.122
			c88.582-188.118,204.457-342.567,323.764-448.475c429.847-381.628,1341.83-441.61,1727.873,333.577
			c257.415,516.955,757.37,761.786,1252.266,884.855C4579.781,1992.087,4775.093,2470.961,4175.104,3089.248z"/>
		<path style="fill:#B981FD;" d="M4747.465,1861.173c0,915.581-742.335,1657.917-1657.917,1657.917
			s-1657.757-742.336-1657.757-1657.917c0-778.783,536.896-1432.046,1260.765-1609.867c9.648-2.451,19.448-4.739,29.256-6.864
			c40.046-9.152,80.738-16.835,121.765-22.882c5.227-0.817,10.462-1.47,15.689-2.125c75.183-10.623,152.162-16.017,230.282-16.017
			c65.216,0,129.442,3.759,192.694,11.114c6.863,0.817,13.567,1.635,20.27,2.452c56.708,7.191,112.603,17.324,167.356,30.399
			c9.64,2.125,19.289,4.413,28.769,6.864C4216.458,436.482,4747.465,1086.802,4747.465,1861.173z"/>
		<circle style="fill:#B981FD;" cx="755.914" cy="2349.148" r="436.42"/>
		
			<ellipse transform="matrix(0.7071 -0.7071 0.7071 0.7071 -946.5912 1146.7141)" style="fill:#B981FD;" cx="910.911" cy="1715.994" rx="130.759" ry="130.759"/>
		
			<ellipse transform="matrix(0.1602 -0.9871 0.9871 0.1602 934.7828 5545.9453)" style="fill:#9E6EE7;" cx="3726.63" cy="2223.62" rx="57.035" ry="57.035"/>
		<circle style="fill:#9E6EE7;" cx="4604.765" cy="2030.678" r="48.954"/>
		
			<ellipse transform="matrix(0.7071 -0.7071 0.7071 0.7071 376.4859 3453.9126)" style="fill:#9E6EE7;" cx="4357.484" cy="1272.498" rx="121.668" ry="121.668"/>
		<g>
			<g>
				<g>
					<path style="fill:#FFFFFF;" d="M4364.042,1790.248l-44.411,3.549c-4.116,0.329-7.188,3.934-6.859,8.052
						c0.326,4.119,3.933,7.191,8.052,6.86l39.939-3.192l-8.411,39.173c-0.87,4.04,1.706,8.019,5.742,8.884
						c4.04,0.867,8.017-1.705,8.884-5.742l9.354-43.559l44.411-3.549c4.116-0.329,7.188-3.934,6.859-8.052
						c-0.132-1.667-0.803-3.162-1.826-4.329c-1.504-1.717-3.774-2.727-6.226-2.531l-39.939,3.192l8.412-39.174
						c0.517-2.405-0.186-4.788-1.69-6.505c-1.023-1.168-2.418-2.028-4.052-2.379c-4.04-0.867-8.017,1.705-8.884,5.742
						L4364.042,1790.248z"/>
				</g>
			</g>
		</g>
		<g>
			<g>
				<g>
					<path style="fill:#FFFFFF;" d="M1527.995,567.45l6.057,75.224c1.749,12.17,12.113,11.786,12.881-1.65l0.768-69.864
						l62.615,14.315c11.599,1.935,13.391-9.581,1.772-11.53l-62.746-16.22l-2.481-64.761c0.839-17.899-24.24-15.084-21.745,0.835
						l2.231,58.24l-56.428-14.587c-13.044-3.527-19.186,12.34-0.504,17.202L1527.995,567.45z"/>
				</g>
			</g>
		</g>
		<g>
			<g>
				<g>
					<path style="fill:#FFFFFF;" d="M1093.747,2922.221l20.816,72.54c4.121,11.583,14.205,9.157,12.3-4.165l-13.067-68.635
						l64.21,1.647c11.753-0.398,11.231-12.041-0.544-11.653l-64.714-3.489l-15.241-62.99c-2.718-17.711-26.745-9.991-21.151,5.119
						l13.707,56.648l-58.198-3.137c-13.484-0.877-16.366,15.891,2.909,16.962L1093.747,2922.221z"/>
				</g>
			</g>
		</g>
		<g>
			<g>
				<g>
					<g>
						<path style="fill:#FFFFFF;" d="M3775.88,1336.644l-155.486,205.565c-1.56,2.063-4.043,3.212-6.626,3.069
							c-2.581-0.142-4.922-1.561-6.245-3.785l-120.919-203.34c-1.422-2.391-1.456-5.359-0.09-7.781
							c1.364-2.453,3.922-3.932,6.704-3.955l276.405-2.225c2.96-0.024,5.674,1.635,7.003,4.279
							C3777.954,1331.115,3777.665,1334.285,3775.88,1336.644z M3614.972,1523.627l146.254-193.51l-262.95,5.758L3614.972,1523.627z
							"/>
					</g>
				</g>
			</g>
		</g>
		<g>
			<g>
				<g>
					<g>
						<path style="fill:#FFFFFF;" d="M1186.067,998.695l-155.486,205.565c-1.56,2.063-4.043,3.212-6.626,3.069
							c-2.581-0.142-4.922-1.561-6.245-3.785l-120.919-203.34c-1.422-2.391-1.456-5.359-0.09-7.781
							c1.364-2.453,3.922-3.932,6.704-3.955l276.405-2.225c2.96-0.024,5.674,1.635,7.003,4.279
							C1188.141,993.166,1187.852,996.336,1186.067,998.695z M1025.159,1185.678l146.254-193.511l-262.95,5.758L1025.159,1185.678z"
							/>
					</g>
				</g>
			</g>
		</g>
		<g>
			<g>
				<g>
					<g>
						<path style="fill:#FFFFFF;" d="M4032.055,2990.863l-134.1,177.292c-1.346,1.779-3.487,2.771-5.715,2.647
							c-2.226-0.123-4.245-1.346-5.386-3.265l-104.288-175.373c-1.226-2.062-1.256-4.622-0.078-6.711
							c1.176-2.115,3.383-3.391,5.782-3.411l238.388-1.919c2.553-0.021,4.894,1.41,6.04,3.691
							C4033.844,2986.095,4033.594,2988.829,4032.055,2990.863z M3888.137,3157.327l125.026-163.697l-223.969-2.768
							L3888.137,3157.327z"/>
					</g>
				</g>
			</g>
		</g>
		<g>
			<g>
				<g>
					<g>
						<path style="fill:#FFFFFF;" d="M3585.99,2795.605l-17.683-117.559c-0.177-1.18,0.244-2.369,1.124-3.175
							c0.879-0.806,2.102-1.12,3.262-0.84l106.056,25.667c1.247,0.302,2.237,1.247,2.596,2.479c0.369,1.24,0.033,2.561-0.856,3.486
							l-88.374,91.893c-0.946,0.984-2.369,1.344-3.669,0.93S3586.192,2796.954,3585.99,2795.605z M3574.249,2676.985l17.743,110.361
							l84.365-85.235L3574.249,2676.985z"/>
					</g>
				</g>
			</g>
		</g>
		<g>
			<g>
				<g>
					<path style="fill:#FFFFFF;" d="M1360.657,1378.967c-21.32,13.452-49.609,7.052-63.061-14.268
						c-13.452-21.32-7.052-49.609,14.268-63.061c21.32-13.452,49.609-7.052,63.061,14.268
						C1388.378,1337.226,1381.977,1365.514,1360.657,1378.967z M1313.698,1303.648c-17.766,11.21-23.773,40.615-12.563,58.382
						c11.21,17.766,37.69,21.703,55.457,10.493c17.766-11.21,26.206-36.821,14.996-54.587
						C1360.377,1300.169,1331.464,1292.438,1313.698,1303.648z"/>
				</g>
			</g>
		</g>
		<g>
			<g>
				<g>
					<path style="fill:#FFFFFF;" d="M4344.671,1425.225c-23.226,52.218-84.602,75.804-136.82,52.578
						c-52.217-23.225-75.804-84.602-52.578-136.82c23.226-52.218,84.602-75.804,136.819-52.578
						C4344.311,1311.631,4367.897,1373.007,4344.671,1425.225z M4161.261,1342.462c-19.354,43.514,6.381,106.499,49.895,125.853
						c43.514,19.354,98.377-6.596,117.732-50.11s2.985-102.413-40.529-121.768
						C4244.845,1277.083,4180.616,1298.948,4161.261,1342.462z"/>
				</g>
			</g>
		</g>
		<g>
			<g>
				<g>
					<path style="fill:#FFFFFF;" d="M3469.87,247.384c-22.88,107.052-82.86,208.384-167.029,261.501
						c-159.193,100.351-433.606,38.571-534.119-120.617c-26.479-41.84-41.681-91.525-46.909-143.826
						c-9.808,2.125-19.608,4.413-29.256,6.864c8.994,50.829,27.788,100.841,56.876,147.094
						c120.615,191.059,374.112,248.426,565.171,127.809c100.513-63.414,163.933-163.438,184.035-271.961
						C3489.158,251.797,3479.51,249.509,3469.87,247.384z"/>
				</g>
			</g>
		</g>
		<g>
			<g>
				<g>
					<path style="fill:#FFFFFF;" d="M3282.243,214.533c-19.289,33.015-44.618,61.126-74.529,80.085
						c-103.29,65.048-280.463,26.477-348.448-75.182c-5.227,0.654-10.462,1.308-15.689,2.125c0,0.164,0.16,0.164,0.16,0.327
						c79.269,125.684,245.979,163.438,371.662,84.171c36.933-23.209,66.189-53.935,87.114-89.074
						C3295.81,216.168,3289.106,215.35,3282.243,214.533z"/>
				</g>
			</g>
		</g>
		<g>
			<g>
				<g>
					<path style="fill:#FFFFFF;" d="M719.694,1148.419c-27.125-42.821-65.862-74.038-109.499-92.016
						c-2.945,6.374-5.89,12.748-8.826,19.122c47.395,15.854,89.564,43.801,113.425,81.719
						c57.69,91.526,16.176,248.263-75.343,305.957c-45.44,28.602-107.057,34.322-164.747,21.574
						c-1.309,6.373-2.29,12.748-3.272,19.286c58.017,12.584,120.616,3.269,174.715-30.89
						C755.981,1403.873,788.996,1258.249,719.694,1148.419z"/>
				</g>
			</g>
		</g>
		<g>
			<g>
				<g>
					<path style="fill:#FFFFFF;" d="M617.386,1214.775c-13.567-21.574-33.182-36.937-55.248-45.599
						c-1.301,3.268-2.45,6.373-3.751,9.642c23.694,7.682,44.778,21.41,56.709,40.206c28.107,44.618,7.845,120.944-36.774,149.056
						c-22.393,14.219-52.958,16.834-81.392,10.133c-0.822,3.105-1.636,6.374-2.29,9.48c28.769,6.537,59.98,2.125,86.954-14.873
						C635.198,1339.151,651.214,1268.219,617.386,1214.775z"/>
				</g>
			</g>
		</g>
		<g>
			<g>
				<g>
					<g>
						<g>
							<path style="fill:#FFFFFF;" d="M4212.894,844.825c-20.412,0-32.758-20.855-44.695-41.023
								c-10.803-18.251-21.004-35.49-35.928-35.49c-14.728,0-26.209,16.751-38.364,34.483c-14.159,20.664-28.805,42.03-51.221,42.03
								c-22.01,0-35.145-20.687-47.846-40.689c-11.695-18.423-22.744-35.824-39.744-35.824c-17.074,0-29.748,17.475-43.16,35.973
								c-14.455,19.932-29.402,40.54-51.399,40.54c-20.749,0-33.114-20.232-45.077-39.799c-11.54-18.88-22.438-36.714-40.027-36.714
								c-14.847,0-25.176,14.922-37.135,32.2c-14.373,20.771-30.668,44.313-58.79,44.313c-2.578,0-4.664-2.573-4.664-5.745
								s2.086-5.745,4.664-5.745c23.818,0,42.156-16.656,55.86-36.459c12.328-17.814,20.915-40.054,40.065-40.054
								c22.238,0,35.072,20.99,47.478,41.292c11.076,18.111,21.888,41.628,37.982,41.628c17.821,0,30.399-24.235,44.084-43.112
								c14.195-19.57,28.869-39.808,50.119-39.808c21.546,0,34.53,20.454,47.09,40.234c11.845,18.655,22.683,43.197,40.148,43.197
								c18.085,0,31.075-25.352,44.45-44.869c12.993-18.959,26.428-38.562,45.487-38.562c19.665,0,31.766,20.443,43.465,40.212
								c11.048,18.67,21.487,36.301,37.158,36.301c2.578,0,4.664,2.573,4.664,5.745S4215.472,844.825,4212.894,844.825z"/>
						</g>
					</g>
				</g>
			</g>
		</g>
		<g>
			<g>
				<g>
					<g>
						<g>
							<path style="fill:#FFFFFF;" d="M1307.253,2549.608c-32.562,0-52.258-32.082-71.3-63.107
								c-17.233-28.077-33.507-54.597-57.314-54.597c-23.495,0-41.811,25.768-61.201,53.047
								c-22.587,31.789-45.952,64.656-81.71,64.656c-35.112,0-56.065-31.823-76.327-62.593
								c-18.657-28.341-36.282-55.11-63.402-55.11c-27.237,0-47.456,26.882-68.851,55.339
								c-23.059,30.662-46.904,62.365-81.994,62.365c-33.1,0-52.825-31.124-71.91-61.225c-18.41-29.044-35.795-56.478-63.853-56.478
								c-23.684,0-40.161,22.955-59.24,49.534c-22.929,31.953-48.923,68.169-93.785,68.169c-4.112,0-7.439-3.957-7.439-8.838
								c0-4.881,3.327-8.838,7.439-8.838c37.996,0,60.605-31.5,82.466-61.963c19.667-27.404,40.009-55.74,70.559-55.74
								c35.475,0,50.61,36.458,70.4,67.69c17.669,27.861,40.263,58.688,65.937,58.688c28.428,0,48.486-36.1,70.318-65.14
								c22.645-30.105,46.053-61.238,79.952-61.238c34.371,0,55.084,31.465,75.121,61.894c18.897,28.699,34.968,68.047,62.83,68.047
								c28.85,0,57.515-38.797,78.853-68.821c20.727-29.165,35.433-61.12,65.837-61.12c31.371,0,50.674,31.448,69.338,61.86
								c17.625,28.72,34.277,55.844,59.276,55.844c4.112,0,7.439,3.957,7.439,8.838
								C1314.692,2545.651,1311.365,2549.608,1307.253,2549.608z"/>
						</g>
					</g>
				</g>
			</g>
		</g>
		<path style="fill:#9E6EE7;" d="M4179.904,2512.993c0,74.686-83.068,149.188-157.754,149.188
			c-74.686,0-135.231-60.545-135.231-135.231s60.545-163.144,135.231-163.144
			C4096.836,2363.806,4179.904,2438.307,4179.904,2512.993z"/>
		<path style="fill:#FFFFFF;" d="M1539.301,2951.374c0,30.859-34.322,61.642-65.181,61.642c-30.859,0-55.875-25.016-55.875-55.875
			s25.016-67.408,55.875-67.408C1504.979,2889.732,1539.301,2920.515,1539.301,2951.374z"/>
		<path style="fill:#FFFFFF;" d="M3523.743,739.721c-26.701,15.495-70.57,1.253-86.065-25.448
			c-15.495-26.701-6.41-60.908,20.291-76.403c26.701-15.495,70.887-12.201,86.382,14.5
			C3559.846,679.072,3550.444,724.226,3523.743,739.721z"/>
		<g>
			<g>
				<g>
					<path style="fill:#FFFFFF;" d="M3970.979,2615.646c-17.36,39.029-63.235,56.659-102.264,39.299s-56.659-63.235-39.299-102.264
						c17.359-39.029,63.235-56.658,102.264-39.299S3988.339,2576.617,3970.979,2615.646z M3833.892,2553.786
						c-14.466,32.524,4.769,79.601,37.293,94.067c32.524,14.466,73.531-4.93,87.997-37.454
						c14.466-32.524,2.231-76.547-30.293-91.014C3896.365,2504.919,3848.358,2521.262,3833.892,2553.786z"/>
				</g>
			</g>
		</g>
	</g>
	<g>
		<path style="fill:#362870;" d="M1676.123,2228.795c13.651-64.752-30.488-131.087-73.174-195.239
			c-49.571-74.498-100.83-151.534-64.946-229.347c37.577-81.483,235.637-251.794,280.608-281.051
			c143.06-93.073-41.872-360.856,43.864-493.919c84.555-131.232,299.839-196.27,515.198-49.989
			c-6.34-22.393-25.05-103.464,13.294-171.572c23.406-41.574,63.704-70.188,119.775-85.052
			c81.259-21.538,159.237-5.98,225.504,44.996c57.88,44.527,102.776,114.219,129.064,195.395
			c42.274,130.539,92.461,120.774,190.587,130.539c63.888,6.358,124.246,5.989,194.665,41.586
			c143.229,72.397,178.867,194.545,100.351,343.941c-55.063,104.771-104.199,207.308-100.709,309.883
			c2.986,87.744,36.196,164.282,120.666,245.901c77.355,58.292,153.599,119.824,150.242,189.015
			c-8.752,180.377-291.244,263.942-143.597,476.675c150.392,216.688-196.844,360.453-888.714,365.472
			c-530.958,3.852-856.628-211.829-868.403-220.306c-70.042-50.425-138.027-112.185-150.514-184.781
			c-12.811-74.467,25.808-121.652,74.7-181.39C1591.798,2421.868,1650.555,2350.077,1676.123,2228.795z M2511.477,785.95
			c147.12-30.62,293.309,41.876,317.842,233.497c24.533,191.621,259.204,79.106,394.636,188.95
			c135.433,109.844,109.192,237.083-30.989,486.728c-72.127,128.45,19.161,216.948,123.602,297.172
			c-12.153-15.268-22.905-30.595-32.318-46.049c-30.885-50.703-46.803-101.973-48.667-156.738
			c-3.603-105.906,46.326-210.248,102.284-316.72c75.404-143.477,42.844-255.918-94.164-325.171
			c-67.78-34.263-131.705-39.146-188.096-43.451c-46.533-3.552-97.323-4.938-131.216-24.645
			c-31.825-18.504-55.374-55.423-73.098-112.393c-45.806-147.234-167.702-275.74-336.74-230.927
			c-52.021,13.789-89.263,40.052-110.689,78.057c-25.851,45.855-29.316,101.602-23.896,135.353
			C2382.774,897.95,2408.833,807.312,2511.477,785.95z M1484.317,2658.567c14.144,110.954,159.513,187.721,166.376,193.364
			c-73.504-102.568-136.416-237.202-18.903-362.489c180.772-192.731,95.817-389.783,10.7-526.981
			c-60.27-97.15-55.051-193.709,14.271-287.267c-41.619,36.602-80.962,81.688-105.392,134.666
			c-32.688,70.878,14.235,141.397,63.913,216.056c44.248,66.502,90.004,135.268,75.178,205.603
			c-26.264,124.58-86.224,197.84-134.403,256.708C1509.41,2545.224,1472.564,2590.242,1484.317,2658.567z"/>
		<path style="fill:#1D1647;" d="M2191.319,1704.832c0,0,72.807,108.928,59.687,175.839
			c-16.479,84.042-87.854,160.525-87.854,160.525h667.754c0,0-91.494-78.26-103.648-159.213
			c-10.496-69.905,50.555-177.151,50.555-177.151H2191.319z"/>
		<path style="fill:#1C9DB3;" d="M2997.238,3401.689c0,163.392-216.403,255.955-503.667,255.955s-536.609-92.563-536.609-255.955
			c0-163.392,232.874-295.847,520.138-295.847S2997.238,3238.297,2997.238,3401.689z"/>
		<path style="fill:#FF9D76;" d="M2914.251,2559.149c22.476,37.765,147.103,268.794,191.313,383.667l183.748,35.567
			c7.213,1.396,13.822-4.48,12.815-11.687c-38.558-276.027-253.312-770.668-299.188-832.889
			c-38.518-52.245-268.733-118.284-333.588-133.546c-12.526-2.948-33.737-11.912-42.266-21.194
			c-63.795-69.427-38.108-242.925-38.108-242.925l-222.618,1.357c0,0,23.525,147.512-32.563,226.678
			c-12.271,17.32-41.879,25.296-62.407,32.457c-74.621,26.029-253.696,58.492-311.516,127.739
			c-34.989,41.898-285.195,790.611-252.723,864.024l202.572-65.057c49.775-127.56,148.383-322.71,164.748-380.813
			c19.918,25.636,80.525,232.439,74.463,336.306c-18.705,320.546-96.878,402.326-96.878,402.326s144.047,74.232,444.465,73.834
			c346.808-0.461,441.187-26.356,441.187-26.356s-87.71-122.081-93.561-438.489
			C2842.052,2776.855,2909.377,2596.498,2914.251,2559.149z"/>
		<path style="fill:#FFD939;" d="M3002.186,2117.629c-79.537-78.6-344.763-121.643-350.699-123.442
			c0,0-9.948,130.911-181.583,131.193c-137.429,0.226-172.793-137.387-172.793-137.387s-264.108,36.896-346.987,136.38
			c-99.634,119.595-197.093,450.196-194.966,462.279c2.124,12.08,66.897,51.779,143.434,72.353
			c76.537,20.576,138.459,27.19,145.899,23.076c2.476-1.368,23.317-41.159,40.486-78.315
			c34.191,44.623,65.603,257.48,63.955,285.688c-18.76,321.474-103.273,377.463-103.273,377.463s145.621,97.61,446.908,97.209
			c347.809-0.458,445.138-35.487,445.138-35.487s-95.667-107.797-101.534-425.115c-0.704-38.076,43.052-228.387,67.767-303.231
			c17.291,36.032,30.517,77.158,32.974,78.517c7.443,4.114,59.53,7.2,136.067-13.373c76.537-20.576,161.79-76.139,163.917-88.219
			C3239.025,2565.138,3111.52,2225.676,3002.186,2117.629z"/>
		<path style="fill:#FCA322;" d="M2905.135,2609.552c16.513,31.825,29.004,68.602,31.48,69.97c3.859,2.134,25.362,5.33,73.061-1.129
			c0,0-71.549-118.392-120.467-231.508c-4.679-10.819-12.314-9.602-11.759,2.114c13.049,275.364-226.135,253.895-227.04,265.495
			c-1.063,13.623,123.575,26.997,171.71-3.941c0.184-0.118,0.414-0.142,0.623-0.211c18.088-6.167,8.491,126.325,5.568,212.947
			c-6.637,196.704-129.336,393.468-339.826,386.009c-228.179-8.086-305.537-262.358-315.149-409.886
			c-4.165-63.915-7.396-194.442-7.396-194.442l0,0c73.88,36.521,174.999,16.718,174.468,6.558
			c-0.749-14.309-203.227-6.227-226.73-259.752c-1.321-14.254-8.397-13.601-12.998,0
			c-45.946,135.824-109.254,227.131-109.254,227.131c27.656,4.758,49.206,5.306,53.064,3.173
			c2.476-1.368,23.248-41.096,40.417-78.252c2.006,7.833,0.581-0.714,2.006,7.833c68.396,410.463-92.411,678.994-92.411,678.994
			s200.237,91.488,501.521,91.087c347.812-0.461,484.583-57.852,484.583-57.852S2831.389,3046.295,2905.135,2609.552z"/>
		<path style="fill:#F27E5F;" d="M2592.195,1903.185c-12.325-70.437-3.465-109.465-3.465-109.465l-217.63,1.36
			c0,0,4.253,39.884-9.355,103.685C2449.932,1972.988,2503.239,1975.274,2592.195,1903.185z"/>
		<path style="fill:#F27E5F;" d="M2015.876,2682.246l-24.449-3.338c-66.763,145.518-183.314,220.698-183.314,220.698
			s96.411-34.771,117.984-16.617C1948.259,2827.179,1995.385,2745.47,2015.876,2682.246z"/>
		<path style="fill:#F27E5F;" d="M2980.433,2681.475l29.244-3.081c92.955,178.692,173.93,216.663,173.93,216.663
			s-56.135-23.374-102.931-11.133C3080.675,2883.923,3014.875,2749.816,2980.433,2681.475z"/>
		<path style="fill:#FF9D76;" d="M1711.946,2995.136c-7.602-9.081-6.828-21.784,2.089-29.59
			c38.862-34.02,212.062-82.557,212.062-82.557c124.834,32.452,356.558,183.882,483.872,232.298
			c17.771,6.758,38.787,16.249,50.068,29.742c19.093,22.836,35.104,52.906,3.072,58.354
			c-50.758,8.632-464.123-62.135-538.248-78.672C1836.928,3105.093,1737.25,3025.364,1711.946,2995.136z"/>
		<path style="fill:#F27E5F;" d="M2085.051,3126.54c-161.729-22.486-241.562-52.21-380.802-158.089c0,0,0,19.158,5.511,25.928
			c24.874,30.558,126.642,110.652,214.574,130.27c74.125,16.538,487.49,87.303,538.25,78.673
			c10.265-1.747,16.228-6.176,19.013-12.111C2371.317,3188.279,2236.606,3147.612,2085.051,3126.54z"/>
		<path style="fill:#FF9D76;" d="M3301.944,2965.384l-218.287-82.626c-134.001,52.265-368.105,158.408-480.551,217.502
			c-16.765,8.811-45.649,25.507-56.906,39.019c-19.05,22.869-28.473,54.245,3.569,59.638
			c50.774,8.545,464.008-62.925,538.102-79.588C3175.767,3099.561,3304.639,2996.327,3301.944,2965.384z"/>
		<path style="fill:#F27E5F;" d="M2927.684,3121.431c161.688-22.762,233.114-63.941,372.158-170.057
			c2.76,8.55,4.127,31.362-0.181,36.526c-25.249,30.273-123.369,111.599-211.264,131.366
			c-74.094,16.664-487.328,88.133-538.104,79.589c-10.268-1.73-16.239-6.148-19.035-12.078
			C2641.532,3183.656,2776.168,3142.76,2927.684,3121.431z"/>
		<path style="fill:#FF9D76;" d="M2668.329,3155.294c-12.142-36.568-51.82-54.309-84.979-37.902
			c-16.392,8.11-33.204,18.441-42.924,30.105c-23.543,28.252-40.222,119.284-26.652,198.525
			c13.57,79.241,107.502,14.807,147.551-77.929C2680.529,3223.622,2678.08,3184.66,2668.329,3155.294z"/>
		<path style="fill:#F27E5F;" d="M2650.966,3234.428c14.591-33.791,16.646-64.371,12.533-90.007
			c1.853,3.42,3.503,7.021,4.785,10.877c9.75,29.369,12.199,68.327-7.006,112.8c-40.05,92.738-133.982,157.171-147.551,77.931
			c-0.581-3.386-1.03-6.814-1.501-10.237C2540.008,3374.721,2616.005,3315.383,2650.966,3234.428z"/>
		<path style="fill:#FF9D76;" d="M2341.611,3164.53c12.075-36.589,51.719-54.397,84.909-38.047
			c16.407,8.083,37.301,23.548,37.301,23.548c23.595,28.212,52.883,127.031,32.698,204.964
			c-15.256,58.903-107.475,14.99-147.695-77.677C2329.537,3232.878,2331.914,3193.912,2341.611,3164.53z"/>
		<path style="fill:#F27E5F;" d="M2359.074,3243.63c-14.653-33.766-16.765-64.343-12.699-89.986
			c-1.847,3.424-3.49,7.027-4.765,10.885c-9.695,29.385-12.073,68.348,7.214,112.788c40.221,92.67,129.21,136.576,147.695,77.679
			c1.031-3.286,1.017-6.816,1.482-10.239C2470.291,3383.734,2394.185,3324.526,2359.074,3243.63z"/>
		<g>
			<g>
				<path style="fill:#E7E0F0;" d="M2995.314,3351.775h-979.168c-13.296,0-25.567-9.93-27.28-22.141l-98.316-700.956
					c-2.444-17.424,8.662-31.783,24.699-31.783h1180.962c16.036,0,27.143,14.359,24.699,31.783l-98.316,700.956
					C3020.881,3341.844,3008.61,3351.775,2995.314,3351.775z"/>
			</g>
			<g>
				<path style="fill:#C7BDD6;" d="M3005.374,3387.02h-999.288c-7.004,0-12.735-5.607-12.735-12.461v-10.323
					c0-6.854,5.731-12.461,12.735-12.461h999.288c7.004,0,12.735,5.608,12.735,12.461v10.323
					C3018.109,3381.412,3012.378,3387.02,3005.374,3387.02z"/>
			</g>
			<g>
				<path style="fill:#C7BDD6;" d="M3060.607,2620.977c0,0-128.992,533.896-651.82,589.252
					c-144.95,15.347-283.338-20.274-396.901-90.236c-6.154-3.791-14.026,1.22-13.038,8.27l25.064,178.702
					c1.604,11.431,13.092,20.728,25.54,20.728h916.695c12.448,0,23.936-9.297,25.539-20.728l92.043-656.233
					C3086.018,2634.42,3075.621,2620.977,3060.607,2620.977z"/>
			</g>
			<g>
				<ellipse style="fill:#C7BDD6;" cx="2505.73" cy="2997.203" rx="113.706" ry="54.942"/>
			</g>
			<g>
				<path style="fill:#FFFFFF;" d="M1972.224,2643.175l721.053-46.279h-778.156c-16.036,0-27.143,14.359-24.699,31.783
					l79.243,564.978l-25.461-519.766C1943.421,2657.889,1955.886,2644.223,1972.224,2643.175z"/>
			</g>
		</g>
		<g>
			<path style="fill:#FF9D76;" d="M1500.599,3272.706c0,0,36.055-148.134,322.489-94.872
				c286.434,53.263,607.58,287.117,825.88,383.328c238.148,104.958,280.415,107.947,280.415,107.947s84.845-20.29,190.642-50.427
				c170.584-48.592,208.966,11.194,211.7,38.302c3.866,38.338-8.546,78.834-132.904,110.125
				c-168.519,42.404-296.965,21.34-296.965,21.34c-60.967-10.321-928.718-77.912-1077.757-129.558
				C1640.103,3595.132,1427.855,3450.772,1500.599,3272.706z"/>
			<g>
				<path style="fill:#C7BDD6;" d="M2893.226,3672.33c0,0,246.978-109.979,325.927-111.633
					c69.35-1.453,152.107,62.172,145.462,118.71c-6.645,56.538-76.742,119.029-198.961,123.753
					c-102.95,3.979-301.487-11.264-301.487-11.264S2909.991,3749.293,2893.226,3672.33z"/>
				<path style="fill:#E7E0F0;" d="M2864.168,3791.896c0,0,45.823-42.603,29.058-119.567c0,0,202.949-91.132,299.701-109.253
					c64.772,8.452,133.317,65.861,127.246,117.519c-6.277,53.388-69.203,112.03-179.117,122.375
					C3034.107,3804.18,2864.168,3791.896,2864.168,3791.896z"/>
				<path style="fill:#C7BDD6;" d="M2896.516,3694.778c0,0,164.109-54.757,230.763-59.537c66.654-4.78,94.937,28.44,95.958,51.939
					c1.021,23.499-37.251,63.773-89.807,67.94c-52.555,4.168-240.461-17.109-240.461-17.109S2897.517,3716.964,2896.516,3694.778z"
					/>
				<path style="fill:#FFFFFF;" d="M3129.602,3618.266c0,0,3.832,10.08,7.64,24.256c1.942,7.094,3.705,15.289,5.078,23.959
					c1.291,8.684,2.178,17.877,2.024,27.082c0.324,9.234-0.911,18.386-1.801,27.193c-1.615,8.673-2.913,17.022-4.777,24.216
					c-1.36,7.359-3.399,13.336-4.343,17.841c-1.02,4.469-1.464,7.204-1.464,7.204s2.037-1.689,5.357-4.961
					c3.188-3.339,8.259-7.974,12.323-14.877c4.772-6.547,8.777-15.153,12.245-24.811c3.103-9.797,4.894-20.761,5.024-31.858
					c-0.321-11.072-1.832-22.152-5.358-31.876c-3.304-9.755-7.818-18.267-12.708-24.769
					C3139.421,3623.54,3129.602,3618.266,3129.602,3618.266z"/>
				<path style="fill:#FFFFFF;" d="M3050.985,3621.683c0,0,3.832,10.08,7.64,24.256c1.942,7.094,3.705,15.289,5.078,23.959
					c1.291,8.684,2.178,17.877,2.024,27.082c0.324,9.234-0.912,18.386-1.801,27.193c-1.615,8.673-2.913,17.022-4.777,24.216
					c-1.36,7.359-3.399,13.335-4.342,17.84c-1.02,4.47-1.464,7.204-1.464,7.204s2.037-1.689,5.357-4.962
					c3.188-3.339,8.259-7.974,12.323-14.877c4.772-6.547,8.777-15.153,12.244-24.811c3.103-9.797,4.894-20.761,5.024-31.858
					c-0.321-11.072-1.832-22.152-5.358-31.876c-3.304-9.755-7.818-18.267-12.708-24.769
					C3060.804,3626.956,3050.985,3621.683,3050.985,3621.683z"/>
				<path style="fill:#FFFFFF;" d="M2977.89,3640.09c0,0,3.832,8.309,7.244,20.604c1.84,6.089,3.516,13.173,4.81,20.709
					c1.236,7.55,2.038,15.588,1.929,23.632c0.257,8.062-0.842,16.061-1.731,23.714c-1.499,7.536-2.769,14.748-4.54,20.917
					c-1.371,6.295-3.028,11.526-4.163,15.239c-1.073,3.755-1.513,6.069-1.513,6.069s1.698-1.497,4.368-4.422
					c2.427-3.052,6.9-6.977,10.212-12.98c3.952-5.684,7.255-13.095,10.14-21.365c2.552-8.393,4.065-17.751,4.153-27.218
					c-0.065-19.023-6.818-37.352-14.966-48.536C2985.835,3645.025,2977.89,3640.09,2977.89,3640.09z"/>
			</g>
			<path style="fill:#33CAD6;" d="M1494.198,3266.685c0,0,52.59-153.004,338.721-98.107s1085.609,494.478,1086.908,498.773
				c11.553,38.181,4.15,100.485-10.646,128.902c-1.447,2.779-957.059-74.51-1093.245-122.572
				C1632.296,3608.87,1420.475,3444.336,1494.198,3266.685z"/>
			<path style="fill:#1C9DB3;" d="M2752.101,3589.441c0,0,41.332,48.359,0.197,99.988c-24.039,30.17-63.851,52.371-187.581,47.09
				c-288.259-12.303-541.039-31.351-739.761-97.307c-132.62-44.017-300.338-167.687-345.225-284.884
				c10.804,142.289,183.258,265.442,336.203,319.42c136.186,48.062,1098.246,127.475,1099.802,124.756
				c23.829-41.625,24.623-111.486,13.187-131.445C2926.692,3663.165,2783.16,3600.611,2752.101,3589.441z"/>
		</g>
		<g>
			<path style="fill:#FF9D76;" d="M3418.511,3288.345c0,0-33.753-150.081-317.953-97.882
				c-284.201,52.2-605.117,286.904-822.441,382.956c-237.083,104.785-272.505,111.232-272.505,111.232
				s-66.953-15.254-187.342-56.217c-85.308-29.026-160.361,3.737-179.125,23.888c-26.392,28.343,19.186,114.136,110.662,141.772
				c146.033,44.118,247.785,22.883,247.785,22.883c60.478-10.084,947.495-88.453,1095.685-139.826
				C3276.225,3613.727,3488.188,3468.926,3418.511,3288.345z"/>
			<g>
				<path style="fill:#C7BDD6;" d="M2053.434,3694.433c0,0-251.286-108.436-331.221-109.186
					c-70.215-0.659-153.241,64.712-145.853,121.865c7.388,57.152,79.074,119.588,202.843,122.94
					c104.256,2.823,305.044-14.929,305.044-14.929S2037.365,3772.533,2053.434,3694.433z"/>
				<path style="fill:#E7E0F0;" d="M2084.247,3815.122c0,0-46.882-42.588-30.813-120.689c0,0-206.498-89.873-304.646-107.084
					c-65.466,9.314-134.177,68.227-127.428,120.445c6.978,53.968,71.36,112.591,182.74,121.777
					C1912.373,3829.544,2084.247,3815.122,2084.247,3815.122z"/>
				<path style="fill:#C7BDD6;" d="M2050.367,3717.194c0,0-166.757-53.507-234.283-57.566
					c-67.526-4.059-95.766,29.899-96.525,53.697c-0.759,23.798,38.453,64.117,91.7,67.721s243.203-20.132,243.203-20.132
					S2049.613,3739.663,2050.367,3717.194z"/>
				<path style="fill:#FFFFFF;" d="M1813.534,3642.473c0,0-3.761,10.248-7.45,24.642c-1.882,7.204-3.571,15.52-4.859,24.311
					c-1.205,8.805-1.996,18.121-1.732,27.437c-0.22,9.351,1.138,18.601,2.141,27.505c1.736,8.76,3.148,17.197,5.119,24.456
					c1.463,7.433,3.597,13.459,4.604,18.008c1.084,4.512,1.566,7.275,1.566,7.275s-2.082-1.686-5.481-4.96
					c-3.266-3.342-8.453-7.974-12.648-14.914c-4.907-6.572-9.062-15.236-12.685-24.971c-3.255-9.88-5.197-20.958-5.459-32.189
					c0.196-11.211,1.595-22.444,5.051-32.328c3.231-9.914,7.7-18.582,12.574-25.221
					C1803.656,3647.926,1813.534,3642.473,1813.534,3642.473z"/>
				<path style="fill:#FFFFFF;" d="M1893.153,3645.012c0,0-3.76,10.248-7.45,24.642c-1.882,7.204-3.571,15.52-4.859,24.311
					c-1.205,8.806-1.996,18.121-1.732,27.437c-0.22,9.351,1.138,18.601,2.141,27.505c1.736,8.76,3.148,17.197,5.119,24.456
					c1.463,7.434,3.596,13.459,4.604,18.008c1.084,4.512,1.566,7.275,1.566,7.275s-2.082-1.685-5.481-4.96
					c-3.266-3.342-8.453-7.974-12.648-14.914c-4.908-6.572-9.062-15.236-12.685-24.971c-3.255-9.88-5.197-20.958-5.459-32.189
					c0.196-11.211,1.595-22.444,5.051-32.328c3.231-9.913,7.7-18.582,12.574-25.221
					C1883.275,3650.465,1893.153,3645.012,1893.153,3645.012z"/>
				<path style="fill:#FFFFFF;" d="M1967.358,3662.788c0,0-3.781,8.455-7.091,20.94c-1.791,6.185-3.405,13.375-4.626,21.019
					c-1.163,7.657-1.88,15.802-1.676,23.944c-0.165,8.163,1.04,16.247,2.03,23.984c1.605,7.611,2.975,14.896,4.84,21.12
					c1.461,6.356,3.2,11.632,4.392,15.377c1.13,3.788,1.602,6.126,1.602,6.126s-1.736-1.496-4.474-4.425
					c-2.493-3.061-7.066-6.981-10.489-13.02c-4.067-5.708-7.497-13.17-10.514-21.507c-2.681-8.466-4.322-17.921-4.522-27.503
					c-0.156-19.256,6.465-37.889,14.581-49.305C1959.373,3667.877,1967.358,3662.788,1967.358,3662.788z"/>
			</g>
			<path style="fill:#33CAD6;" d="M3424.926,3282.292c0,0-50.055-155.107-333.978-101.251s-603.577,290.421-820.387,387.737
				c-123.24,55.317-216.15,86.181-258.311,100.129c-4.181,1.383-5.964,6.519-3.61,10.351c12.104,19.702,18.803,30.352,23.603,63.393
				c3.132,21.562,1.117,50.064-12.185,69.303c-1.796,2.598,0.247,6.17,3.298,5.824c173.392-19.606,942.386-77.793,1077.807-125.616
				C3283.773,3627.672,3495.576,3462.458,3424.926,3282.292z"/>
			<path style="fill:#1C9DB3;" d="M2362.354,3523.229c0,0-254.003,117.971-251.701,173.001
				c1.943,46.445,49.479,68.995,172.013,64.38c285.472-10.75,720.173-85.892,806.517-116.383
				c131.029-46.273,302.958-154.876,348.918-273.181c-12.551,143.892-184.85,267.473-336.935,321.182
				c-135.421,47.823-1080.854,130.847-1081.36,127.729c-4.43-27.249-15.798-119.595-13.716-148.156
				C2006.416,3667.316,2362.354,3523.229,2362.354,3523.229z"/>
		</g>
		<path style="fill:#FF9D76;" d="M2788.142,1541.297c-5.473,0.523-10.521,1.787-15.194,3.691
			c-3.153-198.275-131.545-357.788-289.488-357.788c-158.31,0-286.926,160.257-289.501,359.173
			c-5.581-2.702-11.734-4.442-18.53-5.072c-32.575-3.019-49.193,25.128-45.215,71.811c5.154,60.483,57.218,114.003,78.463,112.471
			c11.561-0.834,16.114-8.842,16.114-8.842c46.975,129.958,197.99,217.366,256.769,217.366c70.082,0,209.921-87.408,259.645-215.037
			c0,0,6.051,11.139,17.602,7.04c19.887-7.057,68.952-52.622,74.096-113.104C2836.874,1566.321,2820.423,1538.212,2788.142,1541.297
			z"/>
		<path style="fill:#362870;" d="M2487.888,1191.67c0,0,101.054,20.596,78.865,86.004c-22.189,65.408-41.503,130.031,26.627,185.236
			c68.13,55.205,178.122,31.933,172.854,116.971c-2.382,38.445,4.628,45.579,24.496-4.423
			C2811.144,1524.084,2795.668,1143.323,2487.888,1191.67z"/>
		<path style="fill:#362870;" d="M2482.043,1158.794c14.589,2.655,15.198,19.989,6.911,31.424
			c-18.266,25.204-42.305,40.094-106.948,56.922c-129.89,33.813-68.457,109.3-89.455,177.206
			c-16.424,53.115-46.64,83.501-54.798,105.934c-10.832,29.786-13.641,65.784-14.063,83.283c-0.128,5.312-4.608,6.073-7.258,1.361
			c-13.453-23.921-38.165-78.271-43.249-137.565C2160.035,1324.004,2276.707,1121.421,2482.043,1158.794z"/>
		<path style="fill:#1D1647;" d="M2487.888,1191.67c0,0,11.21-68.553,96.408-44.62c100.854,28.331,56.433,158.851,12.236,209.93
			c-44.197,51.079-3.151,105.929-3.151,105.929s-67.06-44.335-42.972-129.545C2574.495,1248.154,2581.66,1217.325,2487.888,1191.67z
			"/>
		<path style="fill:#1D1647;" d="M2228.958,1477.018c49.742-70.265,16.785-78.072,19.206-156.491
			c1.633-52.903,114.317-67.497,114.317-67.497c-101.481,47.86-50.994,111.898-70.014,172.13
			c-17.917,56.738-46.639,83.501-54.798,105.934c-10.833,29.786-13.343,58.963-13.764,76.463
			C2223.906,1607.557,2206.744,1508.397,2228.958,1477.018z"/>
	</g>
</g>
</svg>
